<?xml version="1.0" standalone="no"?>
<!DOCTYPE svg PUBLIC "-//W3C//DTD SVG 20010904//EN"
 "http://www.w3.org/TR/2001/REC-SVG-20010904/DTD/svg10.dtd">
<svg version="1.0" xmlns="http://www.w3.org/2000/svg"
 width="2337.000000pt" height="958.000000pt" viewBox="0 0 2337.000000 958.000000"
 preserveAspectRatio="xMidYMid meet">

<g transform="translate(0.000000,958.000000) scale(0.100000,-0.100000)"
fill="#000000" stroke="none">
<path d="M816 9515 c-36 -37 -69 -77 -72 -91 -4 -16 2 -45 19 -82 14 -31 28
-68 32 -80 4 -13 25 -42 48 -63 23 -23 36 -43 31 -48 -5 -5 -91 -39 -191 -76
l-183 -67 0 -814 c0 -470 4 -815 9 -818 5 -3 29 3 52 14 50 22 133 26 149 8 6
-7 20 -29 33 -48 16 -26 46 -47 113 -81 50 -25 115 -66 145 -92 53 -47 79 -62
191 -111 46 -20 61 -32 79 -67 12 -24 37 -65 55 -92 19 -27 34 -52 34 -56 0
-13 -25 -37 -67 -65 -24 -16 -59 -49 -79 -73 -41 -50 -85 -73 -138 -73 -50 0
-80 -14 -125 -58 -38 -37 -45 -39 -116 -45 -115 -9 -164 -51 -131 -115 9 -17
16 -39 16 -49 -1 -22 -76 -102 -116 -123 -59 -32 -69 -98 -28 -176 14 -27 39
-74 55 -104 19 -36 44 -65 73 -85 30 -20 52 -45 65 -76 12 -25 39 -63 61 -83
45 -41 44 -40 29 -85 -9 -26 -8 -41 7 -79 19 -51 20 -79 12 -315 -7 -177 -2
-163 -102 -277 -36 -41 -66 -78 -66 -82 0 -16 -66 -40 -148 -54 -47 -9 -98
-22 -113 -31 -15 -9 -57 -52 -95 -95 -74 -85 -92 -99 -223 -168 -143 -76 -154
-118 -45 -170 49 -23 72 -42 100 -80 45 -63 61 -72 132 -70 31 1 67 1 79 1 35
-1 64 -70 72 -166 5 -62 13 -89 33 -121 15 -23 34 -66 43 -95 9 -30 26 -76 37
-104 72 -173 82 -248 48 -357 -26 -84 -25 -102 5 -116 39 -18 69 -14 93 11 58
61 73 204 33 297 -21 49 -25 76 -32 240 -8 209 -1 253 55 355 39 71 63 89 193
143 249 103 264 107 450 118 69 5 104 2 140 -10 27 -9 107 -31 178 -50 72 -19
189 -55 260 -80 121 -43 137 -46 228 -46 118 0 137 12 137 85 0 36 8 57 35 96
19 28 35 58 35 67 0 12 3 13 11 5 8 -8 8 -25 -1 -62 -15 -64 -8 -85 36 -106
58 -27 94 -29 152 -6 29 12 70 21 92 21 42 0 70 26 70 65 0 31 19 45 64 45 37
0 75 8 132 25 18 6 22 2 27 -33 9 -50 35 -84 86 -106 39 -18 41 -18 73 1 21
12 51 49 84 103 28 46 55 85 61 87 26 9 25 -94 0 -142 -6 -11 -15 -74 -19
-140 -4 -66 -10 -139 -14 -162 -6 -41 -4 -43 29 -63 20 -12 47 -36 61 -54 31
-42 65 -51 112 -31 45 19 44 19 44 -2 0 -9 5 -32 12 -50 10 -26 10 -40 0 -65
-10 -27 -9 -35 3 -48 14 -13 18 -13 43 0 20 12 30 29 39 64 7 27 21 59 33 71
11 12 26 41 33 65 19 67 32 70 139 33 51 -18 124 -37 162 -43 60 -10 71 -9 87
6 18 16 21 15 54 -19 30 -30 43 -37 76 -37 35 0 48 8 104 60 35 33 71 60 80
60 20 0 19 -4 -9 -53 -49 -86 -39 -117 38 -117 57 0 137 -25 215 -66 43 -23
78 -34 106 -34 23 0 64 -7 91 -15 43 -13 74 -31 170 -100 28 -20 66 -6 117 43
42 41 45 52 17 77 -24 21 -25 52 -4 80 13 17 16 18 24 5 5 -8 10 -21 10 -27 0
-7 36 -51 80 -98 86 -90 100 -115 100 -172 0 -21 11 -55 25 -79 28 -47 23 -54
-41 -54 -40 0 -74 -15 -74 -33 0 -7 9 -23 20 -37 11 -14 20 -41 20 -60 0 -44
12 -63 36 -58 14 2 20 13 22 43 6 75 42 70 42 -6 0 -22 9 -49 24 -70 82 -114
108 -157 122 -204 18 -62 38 -84 62 -68 12 7 17 25 17 59 0 42 3 49 20 49 16
0 21 -10 28 -49 5 -29 19 -62 34 -80 23 -28 24 -31 8 -41 -56 -33 -60 -40 -57
-106 4 -68 14 -89 43 -89 13 0 19 -9 21 -37 2 -31 10 -42 46 -66 50 -34 53
-56 22 -157 -23 -70 -19 -112 10 -133 10 -7 23 -31 29 -53 13 -49 85 -134 112
-134 12 0 24 11 31 28 20 46 39 62 75 62 38 0 93 -45 93 -75 0 -29 -46 -65
-85 -65 -33 0 -35 -2 -35 -34 0 -30 4 -36 38 -49 20 -8 78 -18 127 -22 118 -9
149 -19 203 -69 l45 -41 101 -6 c90 -5 109 -10 173 -42 62 -32 81 -37 130 -35
55 3 62 0 133 -49 49 -34 100 -59 146 -72 39 -12 79 -30 89 -41 29 -33 61 -25
95 22 47 65 56 105 38 180 -9 35 -13 81 -11 103 4 30 0 47 -15 65 -18 22 -22
23 -66 13 -25 -5 -46 -7 -46 -2 0 4 9 23 20 41 19 33 19 34 0 65 -24 41 -11
50 24 18 58 -54 132 -21 181 80 32 64 31 114 -3 210 -12 33 -26 78 -31 100 -8
32 -19 45 -55 67 -48 29 -63 59 -52 103 7 29 26 24 26 -7 0 -31 69 -93 130
-115 30 -12 96 -26 147 -32 135 -16 173 5 139 76 -9 19 -13 33 -9 31 4 -2 21
-10 36 -18 25 -12 30 -11 55 7 17 12 32 38 40 67 8 29 19 46 29 46 12 0 14 -6
9 -27 -4 -16 -10 -63 -13 -106 -7 -102 4 -117 89 -117 51 0 59 -2 56 -17 -3
-15 -16 -19 -68 -21 -50 -2 -72 -9 -97 -28 -57 -43 -88 -132 -67 -189 9 -22
48 -41 117 -55 71 -14 85 -34 63 -90 -28 -70 10 -140 77 -140 38 0 30 -24 -9
-28 -92 -11 -84 -104 17 -196 30 -27 71 -64 91 -83 22 -20 43 -52 53 -83 9
-27 36 -79 61 -116 55 -85 62 -119 39 -198 -9 -33 -20 -69 -22 -79 -4 -12 16
-38 65 -86 82 -80 103 -126 84 -190 -7 -21 -12 -46 -12 -56 0 -14 76 -183 111
-247 22 -41 -6 -106 -70 -162 -17 -15 -21 -30 -21 -76 0 -42 -5 -64 -20 -83
-11 -14 -20 -34 -20 -44 0 -24 34 -55 77 -72 19 -8 42 -31 62 -62 l30 -49 408
0 408 0 85 35 c77 31 94 35 185 35 71 0 119 6 165 20 58 18 72 19 128 8 62
-12 65 -11 112 15 41 23 52 25 79 16 17 -6 41 -9 53 -6 12 3 49 0 82 -8 75
-18 95 -8 128 63 20 42 28 48 66 56 43 9 59 23 105 96 16 24 37 40 72 53 85
30 103 72 65 147 -34 68 -28 100 33 157 55 53 181 120 241 130 20 3 66 -3 108
-13 57 -15 111 -19 243 -19 l170 0 49 38 c46 35 53 37 124 37 71 0 76 2 113
35 34 31 46 35 92 35 60 0 147 21 182 44 37 24 57 73 62 146 6 82 -20 155 -83
236 -33 43 -52 82 -74 154 -36 117 -72 173 -169 265 -131 122 -153 148 -186
221 -26 56 -46 82 -96 125 -35 30 -113 104 -174 165 -60 62 -190 178 -287 258
-205 168 -238 211 -238 306 0 60 -30 131 -82 194 -37 45 -72 64 -146 77 -31 6
-78 24 -103 40 -25 16 -54 29 -65 29 -43 0 -81 38 -139 139 -73 128 -84 162
-78 227 4 39 1 58 -11 75 -21 30 -20 55 4 167 50 230 123 346 268 429 68 39
82 53 82 85 0 36 6 35 44 -8 30 -34 34 -35 101 -36 43 -1 92 6 128 17 50 16
63 17 90 6 55 -23 75 -24 123 -7 26 9 69 16 96 16 64 0 174 55 322 159 78 55
166 105 296 166 206 97 220 106 305 184 34 31 90 68 130 87 78 36 98 54 135
122 22 40 38 54 125 102 62 34 121 76 156 111 33 34 68 59 85 62 16 3 54 11
85 17 64 12 237 104 286 152 40 39 41 72 1 101 -25 19 -31 19 -81 7 -62 -14
-75 -10 -138 47 -38 34 -39 37 -23 54 10 11 23 19 29 19 7 0 31 18 54 40 23
22 65 51 94 64 69 31 82 48 96 134 12 70 12 73 -12 115 -31 52 -43 157 -28
246 14 85 52 139 153 219 80 62 104 71 151 53 27 -11 36 -6 59 30 15 24 23 27
80 27 36 0 80 7 102 17 21 9 61 17 90 17 59 1 130 28 140 53 3 9 6 31 7 48 1
74 37 80 79 13 17 -28 28 -36 50 -36 40 0 46 28 20 86 -42 92 -36 145 17 159
40 9 59 30 87 91 17 38 31 55 48 58 44 9 113 18 188 25 43 4 90 15 110 25 32
18 60 20 305 20 l270 1 53 -28 c29 -15 89 -34 133 -43 73 -14 83 -14 104 0 13
9 26 25 30 36 9 27 28 25 67 -8 37 -31 97 -52 151 -52 59 0 127 72 127 135 0
14 4 24 9 21 4 -3 6 -36 4 -73 -5 -59 -2 -72 17 -96 31 -39 88 -65 193 -88 58
-13 114 -33 152 -55 33 -19 132 -70 221 -113 186 -92 226 -127 280 -249 52
-115 56 -123 91 -149 41 -32 113 -35 144 -7 28 24 49 75 49 115 0 41 22 34 35
-12 6 -22 38 -61 87 -109 63 -62 77 -82 83 -115 15 -94 57 -140 155 -170 85
-26 102 -37 129 -83 14 -24 36 -56 48 -70 l22 -27 38 36 c21 19 51 43 66 53
l29 18 -7 79 c-6 69 -5 79 9 79 19 0 19 -2 16 -104 -1 -43 -8 -94 -16 -112
-16 -37 -10 -81 17 -136 22 -43 39 -50 110 -47 55 3 56 2 107 -68 15 -21 31
-28 83 -34 75 -10 99 -32 99 -89 0 -24 9 -49 25 -71 41 -56 65 -94 65 -101 0
-10 -16 -10 -64 1 -50 12 -66 5 -66 -29 0 -19 14 -45 40 -75 22 -26 50 -64 61
-86 21 -42 38 -148 39 -239 0 -59 23 -116 53 -134 13 -8 25 -7 46 6 28 15 30
15 47 -3 10 -11 25 -60 35 -115 10 -52 28 -111 39 -129 21 -34 97 -103 137
-124 44 -23 93 23 93 88 0 15 13 45 30 67 16 21 30 45 30 53 0 8 -13 35 -29
60 -16 25 -32 62 -36 81 -7 34 -6 35 10 13 36 -50 108 -14 170 83 20 31 41 54
48 51 7 -2 23 -22 35 -46 29 -51 63 -75 96 -67 18 4 36 30 76 111 29 58 56
107 60 110 16 10 40 -7 40 -27 0 -11 -16 -38 -35 -59 -19 -22 -35 -45 -35 -52
0 -25 40 -77 64 -83 36 -9 42 -1 49 58 3 29 15 73 26 98 26 57 26 91 1 140
-22 43 -26 80 -9 80 7 0 27 -16 45 -36 39 -40 43 -73 19 -142 -14 -39 -13 -47
4 -99 10 -31 17 -63 14 -70 -3 -8 -36 -29 -73 -48 -66 -33 -120 -83 -120 -110
0 -33 22 -66 54 -82 34 -16 36 -16 73 9 22 14 53 29 70 32 51 12 86 59 98 136
15 93 65 150 119 136 12 -3 57 -44 100 -91 79 -87 107 -101 126 -66 12 24 3
51 -39 113 -43 64 -48 98 -21 145 31 57 25 104 -18 122 -33 15 -52 56 -52 111
1 23 3 21 21 -12 13 -26 35 -46 68 -62 62 -32 68 -49 36 -96 -14 -20 -25 -47
-25 -61 1 -40 34 -101 99 -178 33 -40 61 -77 61 -82 0 -4 -10 -24 -21 -44 -20
-33 -21 -41 -10 -90 7 -29 48 -125 92 -212 116 -229 164 -267 369 -292 192
-24 210 -29 301 -87 111 -70 155 -113 170 -167 14 -53 21 -61 75 -87 49 -24
59 -44 17 -34 -44 11 -60 22 -90 62 -55 74 -181 190 -237 216 -63 30 -210 68
-232 59 -19 -7 -18 -52 3 -75 24 -27 9 -33 -34 -15 -21 9 -54 19 -73 23 -49 9
-120 47 -152 81 -15 15 -50 78 -78 138 -28 61 -61 121 -73 134 -23 25 -151 91
-176 91 -8 0 -40 27 -72 60 -77 81 -97 81 -178 0 -64 -64 -81 -101 -81 -181 0
-91 -84 -202 -140 -184 -11 4 -41 25 -67 46 -37 32 -51 39 -72 34 -40 -9 -61
-40 -51 -75 7 -23 4 -35 -12 -55 -17 -22 -26 -25 -71 -23 -49 3 -52 2 -55 -23
-2 -21 19 -47 119 -149 l122 -124 -6 -76 c-6 -88 -27 -138 -82 -190 -20 -19
-45 -51 -55 -70 -34 -65 -89 -109 -154 -121 -55 -10 -60 -9 -95 15 -42 30 -63
32 -81 11 -15 -18 -101 -20 -118 -3 -7 7 -12 25 -12 41 0 65 -42 87 -92 47
-38 -29 -58 -80 -58 -147 0 -58 11 -88 55 -149 16 -22 21 -51 26 -139 6 -106
8 -114 58 -220 77 -165 82 -173 150 -229 41 -33 77 -73 100 -113 20 -34 78
-135 130 -224 105 -180 117 -223 87 -299 -29 -74 -29 -75 149 -254 91 -92 170
-177 175 -190 4 -13 6 -50 3 -82 -4 -47 -2 -62 10 -73 13 -10 21 -9 46 10 51
37 59 24 53 -88 -4 -85 -2 -100 13 -113 16 -13 20 -12 39 13 12 15 24 27 28
27 3 0 11 -20 18 -46 10 -33 25 -55 58 -82 24 -20 57 -59 73 -87 32 -57 45
-70 142 -144 51 -38 77 -51 102 -51 39 0 61 -18 70 -59 7 -35 19 -46 60 -55
39 -10 45 -21 38 -77 -3 -26 -2 -60 1 -75 4 -15 51 -73 104 -128 54 -56 139
-149 191 -208 93 -106 121 -127 176 -131 l30 -2 159 482 160 483 40 0 c70 0
169 20 202 41 43 26 76 105 82 195 5 87 -4 118 -68 219 -74 118 -84 154 -78
304 7 168 34 232 93 217 13 -3 57 -36 97 -72 40 -36 98 -78 128 -92 55 -27 55
-27 52 -70 -3 -56 7 -74 73 -122 76 -56 103 -101 131 -220 28 -117 43 -151 78
-169 50 -27 83 -9 196 107 90 93 118 115 195 154 50 26 117 54 150 63 91 26
108 39 153 107 56 86 85 111 167 148 39 17 81 37 95 45 40 21 92 100 97 149 5
42 4 44 -43 82 -94 76 -114 101 -114 147 0 49 17 79 94 167 68 79 95 130 106
209 15 104 37 123 177 147 82 15 108 25 196 78 28 17 60 25 118 29 87 7 132
23 137 48 2 9 -20 43 -48 77 -58 70 -141 222 -164 302 -8 30 -20 94 -25 142
-9 82 -13 92 -63 165 -29 43 -71 120 -92 171 -30 73 -51 107 -101 162 -71 77
-89 106 -106 174 -16 64 -57 106 -102 106 -47 0 -83 15 -96 39 -6 11 -20 102
-32 202 -11 101 -26 197 -34 214 -7 16 -36 57 -64 90 -30 35 -73 103 -101 161
-46 98 -76 134 -111 134 -9 0 -35 -13 -57 -30 -74 -54 -92 -38 -92 80 0 124 8
142 104 240 47 47 89 96 94 110 5 14 8 59 5 100 -2 41 0 82 6 90 7 9 36 17 87
21 90 7 109 22 120 96 6 39 4 49 -12 60 -23 18 -87 10 -147 -17 -53 -25 -90
-25 -158 -2 -30 11 -82 22 -117 25 -77 8 -94 17 -154 75 -52 50 -57 67 -32
114 20 39 13 103 -14 130 -21 22 -54 27 -90 14 -19 -6 -24 -3 -37 31 -33 84
-51 105 -146 178 -54 42 -101 80 -104 85 -10 16 -35 12 -35 -5 0 -9 7 -29 15
-45 9 -17 12 -30 8 -30 -5 0 -47 39 -93 86 -47 47 -111 103 -144 125 -41 27
-76 64 -117 121 -89 126 -112 174 -106 222 7 49 -7 77 -68 136 -26 25 -76 88
-110 142 -51 77 -78 107 -137 151 -40 30 -93 75 -117 101 -23 26 -48 45 -55
43 -7 -3 -10 -28 -8 -77 4 -88 -7 -90 -54 -9 -18 30 -62 80 -99 113 -37 32
-83 83 -102 112 -21 32 -53 64 -79 79 -24 14 -64 43 -89 65 -26 22 -51 40 -56
40 -6 0 -43 31 -83 69 -40 38 -86 76 -103 84 -58 31 -288 104 -363 117 -124
21 -280 68 -375 115 -50 24 -119 49 -154 55 -76 14 -166 57 -220 105 -35 32
-44 35 -98 35 -53 0 -74 7 -179 59 -66 32 -128 68 -139 81 -29 32 -89 60 -129
60 -28 0 -41 8 -72 45 -36 42 -44 47 -100 55 -34 4 -102 22 -152 39 -98 34
-105 34 -204 -1 -44 -16 -68 -19 -100 -13 -24 4 -82 9 -129 10 -73 1 -97 7
-152 33 -66 30 -66 30 -237 30 -163 -1 -173 -2 -206 -24 -39 -27 -57 -29 -102
-13 -40 14 -94 -3 -116 -36 -23 -35 -44 -37 -131 -16 -55 14 -85 27 -99 45
-40 47 -79 58 -190 54 -88 -3 -105 -6 -133 -27 l-31 -23 -92 18 c-106 22 -134
41 -127 88 3 17 -2 46 -9 65 -18 43 -6 86 35 125 33 32 118 66 165 66 46 0
143 46 152 72 11 37 -18 53 -94 50 -106 -5 -194 -7 -237 -3 -38 3 -241 -17
-385 -38 -36 -5 -81 -16 -100 -24 -61 -26 -204 -15 -346 26 -127 36 -156 49
-188 76 -12 11 -40 17 -90 18 -268 7 -268 7 -347 46 -87 44 -111 45 -164 12
-33 -20 -53 -24 -116 -25 -97 0 -123 16 -111 70 5 19 6 46 2 60 -5 23 -11 25
-75 28 -56 2 -77 -1 -107 -18 -20 -11 -67 -24 -105 -29 -79 -10 -107 -22 -216
-94 -86 -58 -106 -90 -69 -115 29 -19 28 -34 -6 -59 -15 -11 -43 -49 -61 -84
-21 -41 -62 -94 -114 -146 -45 -45 -104 -104 -131 -133 -28 -28 -61 -53 -75
-56 -75 -15 -108 -29 -138 -59 -29 -29 -33 -39 -33 -87 0 -30 -6 -63 -14 -73
-11 -16 -18 -17 -55 -8 -23 6 -50 9 -60 6 -13 -3 -24 6 -39 31 -24 40 -37 44
-68 18 -28 -23 -84 -97 -84 -111 0 -6 -15 -26 -34 -45 -19 -19 -46 -56 -60
-83 -56 -112 -126 -100 -126 21 0 53 -30 96 -67 96 -28 0 -59 -29 -157 -145
-79 -95 -320 -341 -376 -385 -104 -81 -126 -92 -307 -144 -68 -20 -167 -54
-220 -75 -113 -44 -221 -71 -290 -71 -26 0 -86 -9 -133 -21 -47 -11 -129 -27
-182 -34 -69 -10 -118 -24 -170 -49 -40 -19 -120 -47 -177 -61 -184 -46 -425
-158 -716 -331 -119 -71 -209 -117 -264 -136 -97 -32 -101 -35 -154 -108 -23
-30 -73 -87 -111 -127 -39 -40 -88 -92 -109 -117 -59 -70 -111 -96 -211 -105
-79 -8 -90 -12 -190 -70 -142 -83 -167 -93 -263 -102 -95 -8 -156 -27 -268
-79 -49 -24 -103 -41 -140 -45 -33 -4 -91 -15 -130 -25 -149 -40 -234 -50
-424 -50 -136 0 -197 -4 -226 -15 -48 -17 -216 -20 -300 -4 -33 6 -82 22 -110
36 -49 25 -51 26 -95 10 -37 -13 -57 -14 -110 -6 -36 6 -115 14 -176 18 -139
10 -147 14 -320 180 -72 69 -149 142 -171 162 -22 19 -71 82 -111 140 -39 57
-105 142 -147 189 -43 46 -92 114 -110 150 -18 36 -44 75 -56 86 -13 12 -80
50 -149 85 -95 48 -135 63 -170 64 -25 1 -51 4 -57 8 -7 4 -22 39 -34 77 l-23
69 27 25 c15 14 27 28 27 32 0 3 -49 55 -108 114 -89 88 -118 110 -160 124
-82 27 -138 5 -112 -45 13 -23 54 -45 103 -54 22 -4 42 -16 48 -27 21 -40 -8
-46 -148 -33 -72 7 -83 6 -89 -9 -9 -22 8 -40 86 -90 73 -47 101 -79 201 -230
l68 -101 128 -65 c77 -40 135 -76 147 -92 19 -27 19 -30 3 -80 -20 -65 -70
-128 -101 -128 -12 0 -46 20 -75 45 -55 47 -54 47 -187 49 -60 1 -77 5 -110
29 -22 15 -47 27 -55 27 -19 0 -51 -34 -73 -78 -19 -37 -66 -62 -116 -62 -32
0 -80 23 -139 65 -43 31 -59 31 -105 0 -71 -48 -117 -66 -198 -76 -100 -12
-114 -4 -170 92 -46 79 -94 124 -145 138 -22 6 -97 14 -169 19 -183 11 -245
46 -208 118 12 21 13 49 8 127 -7 97 -8 100 -45 143 -35 40 -37 47 -27 74 5
17 14 33 19 36 5 3 9 24 9 48 0 70 16 102 61 120 58 24 86 20 166 -20 40 -21
78 -34 87 -31 21 8 20 46 -1 114 -14 43 -29 65 -73 105 -76 69 -85 73 -110 48
-11 -11 -20 -31 -20 -44 0 -39 -22 -49 -65 -29 -36 17 -37 17 -51 -2 -8 -10
-14 -25 -14 -32 0 -18 -21 -16 -92 8 -49 16 -69 18 -105 11 -102 -22 -180 42
-198 161 -6 48 -11 55 -72 103 -33 26 -40 47 -24 73 8 13 15 13 50 1 37 -12
43 -11 61 5 30 28 71 102 64 118 -3 9 -24 28 -47 42 -61 40 -97 76 -97 98 0
11 20 41 44 66 30 33 50 67 66 115 38 117 26 150 -41 115 -21 -10 -45 -19 -53
-19 -26 0 -131 86 -302 246 -93 88 -200 185 -239 216 -38 31 -88 73 -110 92
-46 40 -70 45 -85 16 -9 -17 -21 -20 -75 -20 -77 0 -93 -13 -119 -95 -9 -30
-28 -68 -42 -85 -24 -27 -31 -30 -88 -30 -84 0 -119 24 -165 112 -36 68 -61
88 -107 88 -39 0 -61 16 -97 73 -50 77 -66 87 -186 118 -60 15 -127 37 -149
48 -66 34 -83 29 -156 -44z m17598 -4268 c17 -25 41 -124 51 -207 l6 -55 -37
80 c-40 89 -67 173 -59 193 7 19 23 14 39 -11z"/>
<path d="M3005 8845 c-55 -23 -85 -46 -85 -67 0 -5 17 -27 38 -51 21 -23 53
-62 72 -86 25 -33 53 -53 109 -78 72 -33 75 -34 93 -16 11 11 23 45 29 82 9
59 8 68 -15 115 -14 28 -40 68 -59 89 -30 32 -41 37 -78 37 -24 0 -71 -12
-104 -25z"/>
<path d="M3434 8521 c-51 -22 -39 -54 26 -76 105 -35 134 -80 135 -212 0 -50
3 -94 7 -98 13 -13 47 7 68 40 13 22 34 38 58 46 20 6 63 27 95 47 50 30 57
39 57 66 0 55 -21 73 -94 78 -56 3 -70 9 -120 46 -30 23 -66 46 -79 51 -38 15
-130 21 -153 12z"/>
<path d="M3063 8255 c-11 -8 -23 -27 -26 -42 -7 -35 27 -137 60 -180 42 -57
103 -53 103 6 0 19 10 34 30 49 17 13 30 30 30 40 0 31 -39 82 -87 112 -52 33
-79 37 -110 15z"/>
<path d="M3652 8018 c-15 -15 -15 -50 0 -84 11 -24 10 -28 -20 -53 -29 -24
-32 -31 -32 -82 0 -30 6 -62 13 -71 16 -21 145 -88 168 -88 31 0 51 42 43 89
-6 38 -5 41 15 41 61 0 82 49 31 70 -30 12 -42 37 -55 113 -4 28 -14 43 -38
57 -36 22 -107 26 -125 8z"/>
<path d="M4023 7808 c-17 -22 -23 -74 -12 -112 11 -39 49 -66 92 -66 31 0 77
36 77 60 0 16 -122 130 -140 130 -4 0 -12 -6 -17 -12z"/>
<path d="M16796 6400 c-49 -53 -60 -96 -30 -121 9 -7 47 -14 89 -16 87 -4 125
17 125 68 0 25 -6 33 -35 45 -20 8 -40 25 -45 38 -8 21 -28 36 -49 36 -5 0
-29 -22 -55 -50z"/>
<path d="M16460 5013 c-8 -3 -37 -16 -65 -29 -27 -12 -77 -26 -110 -30 -85
-10 -101 -18 -115 -58 -10 -31 -8 -47 10 -107 20 -65 21 -76 10 -130 -13 -58
-12 -61 19 -120 l31 -60 -20 -46 c-31 -70 -27 -84 44 -154 57 -58 66 -72 90
-151 29 -90 52 -122 83 -116 29 5 27 34 -7 105 -22 48 -31 82 -31 121 -1 77
12 88 107 84 85 -2 148 21 159 60 4 13 21 51 37 86 29 62 30 65 15 100 -27 63
-28 78 -12 127 20 57 15 72 -27 83 -31 8 -33 12 -39 60 -6 44 -15 60 -65 116
-57 64 -75 73 -114 59z"/>
<path d="M15582 4808 c-13 -13 -16 -56 -6 -82 9 -25 101 -86 129 -86 28 0 55
42 55 84 0 32 -40 61 -74 52 -16 -4 -32 2 -52 19 -33 29 -36 29 -52 13z"/>
<path d="M15574 4354 c-25 -32 -27 -43 -26 -109 2 -65 0 -76 -23 -104 -28 -32
-25 -52 11 -82 9 -7 28 -31 41 -52 15 -24 30 -37 41 -35 23 4 42 45 42 91 0
45 28 77 68 77 49 0 68 43 38 86 -8 12 -20 42 -27 68 -14 57 -56 96 -104 96
-27 0 -39 -7 -61 -36z"/>
<path d="M2727 4275 c-21 -7 -60 -31 -85 -52 -61 -51 -70 -56 -112 -63 -26 -4
-36 -11 -38 -27 -3 -17 7 -29 43 -51 25 -16 55 -43 66 -61 23 -38 27 -38 157
6 114 39 160 87 117 123 -23 19 -18 34 15 47 38 14 47 37 26 68 -15 23 -23 25
-84 25 -37 -1 -84 -7 -105 -15z"/>
<path d="M2995 4058 c-33 -12 -65 -36 -65 -50 0 -15 72 -77 115 -99 22 -11 55
-32 74 -45 41 -29 56 -20 56 34 0 36 1 37 42 40 51 4 70 23 55 56 -8 18 -30
29 -95 50 -90 28 -133 31 -182 14z"/>
<path d="M5186 3689 c-17 -25 -12 -41 34 -103 49 -65 100 -75 100 -20 0 58
-60 144 -101 144 -10 0 -25 -10 -33 -21z"/>
<path d="M2798 3614 c-43 -41 -78 -81 -78 -89 0 -19 66 -58 88 -51 22 7 98
113 107 149 7 28 -9 67 -28 67 -7 0 -47 -34 -89 -76z"/>
<path d="M7602 2140 c-9 -17 -27 -33 -39 -36 -13 -4 -23 -14 -23 -24 0 -20 71
-77 107 -86 29 -8 62 12 69 41 10 40 -54 135 -91 135 -3 0 -14 -14 -23 -30z"/>
<path d="M5142 1708 c-7 -7 -12 -22 -12 -35 0 -19 -5 -23 -33 -23 -36 0 -64
-23 -90 -75 -22 -44 -45 -61 -108 -79 -31 -9 -62 -22 -68 -30 -6 -8 -16 -40
-21 -72 -6 -34 -18 -66 -31 -80 -11 -12 -27 -39 -34 -61 -11 -32 -19 -39 -51
-46 -62 -14 -69 -21 -67 -64 2 -65 115 -270 179 -324 11 -9 39 -28 64 -42 62
-36 142 -106 200 -175 56 -68 77 -78 175 -87 91 -8 165 -30 243 -71 81 -43
136 -45 207 -6 43 23 50 32 53 61 4 38 -21 112 -51 153 -23 31 -56 44 -142 52
-110 12 -131 22 -170 79 -19 29 -45 65 -57 80 -20 24 -22 38 -20 113 2 106 14
132 71 153 24 9 53 28 65 44 19 26 19 30 6 70 -12 32 -21 43 -40 45 -35 5 -85
46 -97 79 -6 15 -18 66 -26 113 -9 47 -25 112 -36 145 -26 78 -76 116 -109 83z"/>
<path d="M7665 1435 c-22 -14 -55 -28 -73 -31 -22 -4 -45 -21 -73 -55 -47 -56
-120 -95 -203 -109 -63 -10 -109 -39 -151 -95 -35 -45 -32 -92 5 -87 14 2 35
10 47 18 12 8 46 14 75 14 53 0 79 11 120 52 10 10 32 18 50 18 26 0 43 12 99
70 74 76 102 89 146 67 16 -9 55 -25 87 -36 55 -19 61 -19 92 -5 42 20 101 85
110 120 13 51 -2 58 -132 65 -65 4 -128 10 -139 13 -12 4 -35 -3 -60 -19z"/>
<path d="M7269 1400 c-20 -19 -29 -38 -27 -52 3 -21 8 -23 52 -21 70 2 93 10
99 33 6 23 -14 47 -50 61 -36 13 -42 12 -74 -21z"/>
<path d="M4877 292 c-22 -25 -21 -60 4 -135 27 -81 42 -97 68 -73 11 10 23 31
26 46 3 16 22 50 41 77 19 26 34 51 34 55 0 5 -9 17 -20 28 -28 28 -129 29
-153 2z"/>
</g>
</svg>
